# xmcd
#
# Track frame offsets:
#	150
#	19870
#	40100
#	61637
#	75757
#	98175
#	120320
#	140305
#	163755
#	188190
#	209065
#	231007
#
# Disc length: 3416 seconds
#
# Revision: 8
# Processed by: cddbd v1.5.2PL0 Copyright (c) Steve Scherf et al.
# Submitted via: EasyCDDAExtractor 15.3.0.1
#
DISCID=900d560c
DTITLE=La Ley - Libertad
DYEAR=2003
DGENRE=Latin
TTITLE0=Amate Y Salvate
TTITLE1=Esa Es La Verdad
TTITLE2=Libertad
TTITLE3=Y Los Demas
TTITLE4=Durar Hasta El Final
TTITLE5=Mas Alla
TTITLE6=Sabes Quien Eres
TTITLE7=En Casa
TTITLE8=Surazul
TTITLE9=Mi Ley
TTITLE10=Hotel Malibu
TTITLE11=Mundo Ideal
EXTD=Este disco esta dedicado al anhelo de paz que muchos tenemos dentro del c
EXTD=orazón...\nLa Ley\n\nTrabajo del 2003 Warner Music (P)(C).\n\nLa Ley, el 
EXTD=Mejor Grupo Hispano de Música y por supuesto Chileno...\nComo yo :D\nrey_
EXTD=black@yahoo.com YEAR: 2003
EXTT0=
EXTT1=Letra: B. Cuevas\nMúsica: B. Cuevas/ H. Gatica
EXTT2=B. Cuevas
EXTT3=B. Cuevas
EXTT4=Letra: B. Cuevas\nMúsica: M. Clavería/ P. Frugone/ B. Cuevas
EXTT5=B. Cuevas\n(será Delirar... o es D...Lirar?)
EXTT6=Letra: B. Cuevas/ D. Child\nMúsica: B. Cuevas/ D. Child
EXTT7=Letra: B. Cuevas\nMúsica: B. Cuevas/ M. Clavería/ A. Frugone
EXTT8=B. Cuevas
EXTT9=Letra: B. Cuevas\nMúsica: B. Cuevas/ L. Rojas
EXTT10=B. Cuevas
EXTT11=B. Cuevas
PLAYORDER=
